<?xml version="1.0" encoding="iso-8859-1"?>
<!-- Uploaded to: SVG Repo, www.svgrepo.com, Generator: SVG Repo Mixer Tools -->
<svg version="1.1" id="Layer_1" xmlns="http://www.w3.org/2000/svg" xmlns:xlink="http://www.w3.org/1999/xlink" 
	 viewBox="0 0 512 512" xml:space="preserve">
<circle style="fill:#E16B5A;" cx="256" cy="256" r="256"/>
<path style="fill:#D16354;" d="M434.464,439.452c-0.084-0.12-0.132-0.26-0.224-0.376c-0.18-1.5-0.76-2.872-1.656-4
	c-0.18-1.5-0.76-2.872-1.656-4c-0.108-0.932-0.376-1.812-0.776-2.62c0.008-0.156,0.048-0.3,0.048-0.456
	c0-1.864-0.672-3.564-1.752-4.92c-0.172-1.5-0.756-2.872-1.656-4c-0.172-1.5-0.756-2.872-1.652-4c-0.176-1.5-0.76-2.872-1.656-4
	c-0.176-1.5-0.76-2.872-1.656-4c-0.176-1.5-0.76-2.872-1.656-4c-0.176-1.5-0.752-2.872-1.656-4c-0.176-1.5-0.752-2.868-1.652-4
	c-0.176-1.5-0.756-2.872-1.656-4c-0.176-1.5-0.756-2.872-1.656-4c-0.176-1.5-0.756-2.872-1.656-4c-0.172-1.5-0.752-2.872-1.648-4
	c-0.18-1.5-0.76-2.872-1.656-4c-0.18-1.5-0.76-2.872-1.656-4c-0.18-1.5-0.76-2.872-1.656-4c-0.18-1.5-0.756-2.868-1.656-4
	c-0.172-1.5-0.756-2.872-1.652-4c-0.108-0.936-0.372-1.82-0.78-2.632c0.012-0.148,0.052-0.292,0.052-0.444
	c0-1.864-0.672-3.564-1.752-4.92c-0.176-1.5-0.76-2.872-1.656-4c-0.176-1.5-0.76-2.872-1.656-4c-0.176-1.5-0.752-2.872-1.656-4
	c-0.176-1.5-0.752-2.872-1.656-4c-0.176-1.5-0.752-2.868-1.652-4c-0.176-1.5-0.756-2.872-1.656-4c-0.176-1.5-0.756-2.872-1.656-4
	c-0.176-1.5-0.752-2.872-1.648-4c-0.18-1.5-0.76-2.872-1.656-4c-0.18-1.5-0.76-2.872-1.656-4c-0.18-1.5-0.76-2.872-1.656-4
	c-0.18-1.5-0.756-2.868-1.656-4c-0.172-1.5-0.756-2.872-1.656-4c-0.172-1.5-0.756-2.872-1.652-4c-0.176-1.5-0.76-2.872-1.656-4
	c-0.176-1.5-0.76-2.872-1.656-4c-0.176-1.5-0.76-2.872-1.656-4c-0.104-0.936-0.372-1.82-0.776-2.632
	c0.008-0.148,0.048-0.292,0.048-0.444c0-1.864-0.672-3.564-1.752-4.92c-0.176-1.5-0.752-2.868-1.652-4
	c-0.176-1.5-0.752-2.872-1.656-4c-0.176-1.5-0.752-2.872-1.652-4c-0.18-1.5-0.756-2.872-1.656-4c-0.18-1.5-0.756-2.872-1.656-4
	c-0.18-1.5-0.756-2.868-1.656-4c-0.172-1.5-0.756-2.868-1.656-4c-0.172-1.5-0.756-2.868-1.656-4c-0.172-1.5-0.752-2.864-1.648-3.996
	c-0.18-1.504-0.76-2.872-1.656-4.004c-0.18-1.5-0.76-2.868-1.656-4c-0.176-1.5-0.756-2.868-1.656-4c-0.176-1.5-0.756-2.868-1.656-4
	c-0.176-1.5-0.756-2.868-1.656-4c-0.176-1.5-0.756-2.868-1.656-4c-0.176-1.5-0.756-2.868-1.656-4c-0.1-0.932-0.372-1.812-0.772-2.62
	c0.008-0.156,0.052-0.3,0.052-0.456c0-1.864-0.672-3.56-1.752-4.924c-0.176-1.5-0.752-2.868-1.656-4c-0.172-1.5-0.752-2.868-1.648-4
	c-0.18-1.5-0.76-2.868-1.656-4c-0.18-1.5-0.76-2.868-1.656-4c-0.18-1.5-0.76-2.868-1.656-4c-0.18-1.5-0.76-2.868-1.656-4
	c-0.18-1.5-0.756-2.864-1.652-3.996c-0.176-1.504-0.76-2.872-1.656-4.004c-0.176-1.5-0.76-2.868-1.656-4
	c-0.176-1.5-0.76-2.868-1.656-4c-0.176-1.5-0.76-2.868-1.656-4c-0.176-1.5-0.752-2.868-1.656-4c-0.176-1.5-0.752-2.868-1.656-4
	c-0.176-1.5-0.752-2.864-1.652-3.996c-0.176-1.504-0.756-2.872-1.656-4.004c-0.172-1.5-0.752-2.868-1.656-4
	c-0.172-1.5-0.752-2.868-1.656-4c-0.508-3.976-3.867-7.088-7.948-7.088h-96c-4.4,0-8,3.6-8,8c0,1.28,0.332,2.476,0.876,3.552
	c-0.008,0.152-0.048,0.296-0.048,0.448c0,1.864,0.672,3.56,1.752,4.924c0.18,1.5,0.76,2.868,1.656,4
	c0.176,1.5,0.756,2.864,1.652,3.996c0.176,1.504,0.76,2.872,1.656,4.004c0.176,1.5,0.76,2.868,1.656,4c0.176,1.5,0.76,2.868,1.656,4
	c0.176,1.5,0.76,2.868,1.656,4c0.176,1.5,0.76,2.868,1.656,4c0.176,1.5,0.76,2.868,1.656,4c0.044,0.348,0.084,0.688,0.176,1.024
	v112.18l-103.6,128.924c-5.084,6.336-6.64,12.116-5.156,16.532c0.068,2.764,1.032,5.216,2.82,7.188
	c0.188,0.744,0.46,1.436,0.8,2.104c0.14,1.284,0.476,2.492,1.024,3.6c0.252,2.348,1.228,4.416,2.788,6.156
	c0.184,0.72,0.452,1.404,0.784,2.06c0.244,2.328,1.196,4.384,2.752,6.084c0.188,0.752,0.468,1.452,0.812,2.124
	c0.132,1.3,0.476,2.516,1.032,3.632c0.24,2.244,1.152,4.228,2.616,5.908C161.364,498.256,207.076,512,256,512
	C325.42,512,388.352,484.324,434.464,439.452z"/>
<g>
	<circle style="fill:#F5F5F5;" cx="287.812" cy="100" r="8"/>
	<circle style="fill:#F5F5F5;" cx="327.812" cy="36" r="8"/>
	<circle style="fill:#F5F5F5;" cx="327.812" cy="84" r="16"/>
	<circle style="fill:#F5F5F5;" cx="291.812" cy="52" r="12"/>
	<path style="fill:#F5F5F5;" d="M215.812,148v142.128l-103.6,128.924c-11.028,13.72-5.644,24.944,11.952,24.944H387.46
		c17.6,0,22.976-11.228,11.952-24.944l-103.6-128.924V148H215.812z"/>
</g>
<g>
	<path style="fill:#96E652;" d="M287.812,268v24.944L393.18,424.068c4.048,5.032,4.252,8.18,3.772,9.148
		c-0.456,0.96-3.04,2.78-9.492,2.78H124.164c-6.456,0-9.036-1.824-9.496-2.78c-0.464-0.968-0.26-4.116,3.776-9.148l105.368-131.124
		V268H287.812z"/>
	<circle style="fill:#96E652;" cx="239.812" cy="240" r="8"/>
	<circle style="fill:#96E652;" cx="259.812" cy="200" r="8"/>
	<circle style="fill:#96E652;" cx="239.812" cy="188" r="8"/>
	<circle style="fill:#96E652;" cx="259.812" cy="164" r="12"/>
</g>
<path style="fill:#F5F5F5;" d="M311.812,136c0,4.4-3.6,8-8,8h-96c-4.4,0-8-3.6-8-8l0,0c0-4.4,3.6-8,8-8h96
	C308.212,128,311.812,131.6,311.812,136L311.812,136z"/>
<rect x="215.812" y="144" style="fill:#CCCCCC;" width="80" height="4"/>
</svg>