<?xml version="1.0" encoding="UTF-8" standalone="yes"?>
<svg width="684" height="640" version="1.1" viewBox="0 0 342 320" xmlns="http://www.w3.org/2000/svg">
<path d="m109.73 98.412c5.9373-3.7108-21.918-3.1312-32.877 6.2623-5.6035 4.803 9.3935-33.399 21.396-37.574 12.003-4.1749-24.527 7.3061-26.615 9.9154-2.0874 2.6093 18.265-29.224 32.355-31.312 14.024-2.0776-29.224-2.0874-29.224-2.0874s18.265-19.309 37.574-21.396c19.309-2.0874-27.137-4.1749-27.137-4.1749 6.2623-6.2623 39.661-17.743 60.014 1.0437 0 0 17.829-15.187 30.268-13.047 0 0-12.525 9.9154-13.568 15.656 0 0 28.18-12.525 38.618-2.6093 0 0-6.7842 1e-5 -11.481 7.3061 27.71-5.0183 50.621 7.8279 57.405 20.874 0 0-18.787-0.52185-18.787-0.52185 7.306 3.653 25.049 18.265 20.353 31.312l-15.656-8.8716s9.8184 21.413 7.306 30.79c-0.65915 2.46-14.612-9.3935-14.612-9.3935s4.5188 15.533 1.0437 14.612c-1.5656-2.6093-9.3935-7.306-9.3935-7.306s3.653 11.481 0.52186 12.003c-3.1312 0.52186-8.3498 0-5.7405 3.1312 0.50667 0.60801-5.9292 7.4244-12.612 7.1594-3.3972-0.13473 4.1678-27.279-0.23247-27.789-12.79-1.4813-42.262 16.588-54.278 18.67-24.556 4.2547-39.903-9.3632-34.641-12.652z" fill="#d6d6d6" fill-rule="evenodd"/>
<path d="m97.842 96.074c-7.3858 1.0004-16.293 3.4814-21.463 7.9122-5.6355 4.8304 9.4472-33.59 21.519-37.789-4.6559-0.57448-22.614 8.58-28.821 14.49 0.03058-7.1292 18.393-34.721 38.249-36.415 14.206-1.2115-33.046-1.6933-33.046-1.6933 0-6.5716 18.37-19.419 37.789-21.519 19.419-2.0994-27.292-4.1987-27.292-4.1987 6.2981-6.2981 39.888-17.845 60.357 1.0497 0 0 17.93-15.274 30.441-13.121 0 0-12.596 9.972-13.646 15.745 0 0 20.948-12.186 41.713-3.8564 0 0-9.698 1.2322-14.422 8.58 26.225-6.2791 51.731 7.4619 60.197 24.28l-23.795-3.4046c7.7539 2.4557 27.629 17.963 22.905 31.085 0 0-20.818-7.9829-20.818-7.9829s16.987 19.831 13.242 34.134c-6.4131-9.0263-15.517-13.554-15.517-13.554s4.5446 15.622 1.0497 14.696c-1.5745-2.6242-9.4472-7.3478-9.4472-7.3478s3.6739 11.547 0.52484 12.071c-3.149 0.52484-9.7024 4.0838-5.7733 5.2522" fill="none" stroke="#020202" stroke-linejoin="round" stroke-width="6"/>
<path d="m210.2 320.24c-0.40839-6.5343 6.9641-54.227 5.4578-73.809 0-10.536 51.968 17.323 72.679-59.876l-14.439-3.8634c-6.3748 22.124-35.206 44.425-54.474 39.262-25.54-6.8434-26.737-5.2721-28.996-9.4144-2.2595-4.1424-1.0283-15.123-17.699-14.705-14.686 0.36812-18.505 11.61-18.909 25.033-14.686 13.933-43.979 28.836-67.327 10.383l-11.674 13.557c13.557 15.816 54.604 22.595 75.692 3.3892l-1.1297 70.043" fill="#faf6e6" fill-rule="evenodd" stroke="#000" stroke-width="6"/>
<path d="m158.27 217.04s-14.056-8.2788-27.494 1.3962c-13.437 9.675-28.487 11.287-32.787 3.225-4.3-8.0625 3.7625-17.737-1.075-21.5-4.8375-3.7625-11.825-4.8375-8.6-11.825 3.225-6.9875 8.8307-4.9155 10.75-11.825 2.6875-9.675-11.825-11.287-10.75-19.35 0.60695-4.5521 7.525-1.075 10.212-6.45 2.6875-5.375 6.2246-17.464 1.6125-21.5-4.3-3.7625-4.8375-24.187 8.0625-32.25 3.247-2.0294-3.3191-2.8129-11.882-1.653m116.69 18.857c8.431 2.5071 15.942 26.857-0.287 31.439 0 0 3.4636 6.4762 2.9362 7.7946-4.1277 13.747-13.399 6.3352-13.399 6.3352-2.9227 4.384-1.6736 26.118-17.817 39.355" fill="none" stroke="#020202" stroke-linejoin="round" stroke-width="6"/>
<path d="m198.34 320.24s12.804-77.951 1.8829-88.496c0 0-11.674 21.088-47.825 9.4144" fill="none" stroke="#000" stroke-linecap="round" stroke-linejoin="round" stroke-width="2.5"/>
<path d="m152.19 247.95c1.021-3.6755-4.6913-13.57 4.7231-21.102" fill="none" stroke="#000" stroke-linecap="round" stroke-linejoin="round" stroke-width="2.5"/>
<path d="m164.07 233.63s-9.8998-7.8312-8.77-14.233c1.1297-6.4018 7.6403-17.023 17.808-17.776 10.168-0.75315 17.699 6.4018 13.933 21.841" fill="none" stroke="#000" stroke-linecap="round" stroke-linejoin="round" stroke-width="2.5"/>
<path d="m193.97 270.74c-1.8829 0.75316-5.5104 5.2202-4.5816 8.5526 1.632 5.8551 8.3308 2.5514 8.4856-1.5106 0.20129-5.2817-0.48168-7.9589-3.904-7.0419z" fill="#050504" fill-rule="evenodd"/>
<path d="m168.59 208.78c-3.3892 1.5063-8.7307 5.4343-5.0218 9.1431 2.0839 2.0839 9.6913 6.5271 14.813-2.3437 4.5672-7.9106-4.0948-9.3311-9.791-6.7994z" fill="none" stroke="#000" stroke-width="4"/>
<path d="m282.69 106.35c-0.30587 4.2822-31.327 57.547-37.658 64.771-1.3592 1.4272-0.37581 4.7495 2.2176 6.1371 11.777 6.3008 56.752 11.531 66.319 9.6792 2.6237 0.44866 4.4386-2.8823 3.9926-4.4836-5.6968-20.452-4.5507-54.889-6.2521-67.819 10.921 0.75315 28.755-4.5189 31.015-11.674v-18.452s-12.562 12.427-23.86 9.791c26.737-19.959 12.842-42.963 2.636-39.917-11.456 3.4191 10.78 21.014-17.699 32.009 6.4178-11.116 5.2109-22.634 0.04143-30.094-2.0788-3.0001-8.8087-8.3115-16.719-8.0461-11.045 0.36174-13.615 12.864-6.7483 12.864 9.7575 0 25.423 21.874 0.07808 28.665-15.411 4.1293-4.8519-8.2726-4.1424-10.921 2.9132-10.872-17.699-5.4156-17.699 6.7784 0 17.768 4.5189 17.699 24.477 20.712z" fill="#020202" fill-rule="evenodd"/>
<path d="m258.29 161.81 5.5057-10.706c19.576 9.4821 35.176 10.4 44.352 9.1762 0.61175 10.706 0 11.623 0 11.623-27.835 1.2235-40.07-4.2822-49.858-10.094z" fill="#f6c612" fill-rule="evenodd"/>
<path d="m285.82 96.654c5.5058-2.1411 18.658-1.2235 21.105 5.5058" fill="none" stroke="#eaeae7" stroke-linecap="round" stroke-width="1.2"/>
<path d="m22.183 143.04s-0.26093-33.493-0.26093-33.493c-5.5089-2.7544-9.322-11.801 9.8373-14.431 23.944-3.2861 23.48 8.7902 16.133 12.857v33.821" fill="#72caba" fill-rule="evenodd" stroke="#000" stroke-width="6"/>
<path d="m65.896 260.91c17.129-15.6 35.481-39.764 33.034-44.964-2.447-5.1999-33.952-18.047-41.905-54.446 14.988-20.799 5.1496-27.948-3.3646-29.058-7.0351-0.91762-16.823 0.61175-20.188 8.2586-21.105-2.1411-28.14 8.2586-22.023 17.129 0 0-4.894 3.3646-4.894 8.8704 0 6.7292 7.0351 7.0351 5.5057 8.5645 0 0-3.6705 5.1999-1.2235 9.1762 2.1411 5.8116 7.8346 3.9764 7.8346 3.9764s-2.3288 9.788 1.3417 16.211c2.9893 5.2312 4.5881 10.094 13.764 10.706 3.9764 3.0588-3.9764 16.823 23.858 48.022 3.0588 0.61174 4.894-1e-5 8.2586-2.447z" fill="#020202" fill-rule="evenodd"/>
<path d="m160.83 214.29s-16.136-7.3268-29.183 2.0666-27.659 10.959-31.834 3.1312c-4.1749-7.8279 3.653-17.221-1.0437-20.874-4.6968-3.653-11.481-4.6968-8.3498-11.481 3.1312-6.7842 8.5738-4.7724 10.437-11.481 2.6093-9.3935-11.481-10.959-10.437-18.787 0.58929-4.4197 7.306-1.0437 9.9154-6.2623 2.6093-5.2186 6.0435-16.956 1.5656-20.874-4.1749-3.653-4.6967-23.484 7.8279-31.312 5.9373-3.7108-21.918-3.1312-32.877 6.2623-5.6035 4.803 9.3935-33.399 21.396-37.574 12.003-4.1749-24.527 7.3061-26.615 9.9154-2.0874 2.6093 18.265-29.224 32.355-31.312 14.024-2.0776-29.224-2.0874-29.224-2.0874s18.265-19.309 37.574-21.396c19.309-2.0874-27.137-4.1749-27.137-4.1749 6.2623-6.2623 39.661-17.743 60.014 1.0437 0 0 17.829-15.187 30.268-13.047 0 0-12.525 9.9154-13.568 15.656 0 0 28.18-12.525 38.618-2.6093 0 0-6.7842 1e-5 -11.481 7.3061 27.71-5.0183 50.621 7.8279 57.405 20.874 0 0-18.787-0.52185-18.787-0.52185 7.306 3.653 25.049 18.265 20.353 31.312l-15.656-8.8716s9.8184 21.413 7.306 30.79c-0.65915 2.46-14.612-9.3935-14.612-9.3935s4.5188 15.533 1.0437 14.612c-1.5656-2.6093-9.3935-7.306-9.3935-7.306s3.653 11.481 0.52186 12.003c-3.1312 0.52186-8.3498 0-5.7405 3.1312 2.6093 3.1312 12.525 17.743 7.8279 25.049-4.6967 7.306-6.735 14.622-6.735 14.622 0 14.09-11.53 9.9055-11.53 9.9055-3.1312 4.6968-1.7984 24.052-23.195 36.055-6.0284 3.4805-2.6331 9.247-1.3973 12.955 1.2358 3.7075-2.4686 8.1582-8.0582 8.1134-3.4541-0.02768-7.6522-6.1962-7.5746-5.4379z" fill="#f2d6c6" fill-rule="evenodd"/>
<path d="m47.892 241.76 6.6894 10.624c19.675-18.101 32.266-38.562 32.266-38.562l-7.8698-7.0828c-5.5089 15.74-31.086 35.021-31.086 35.021z" fill="#f6c612" fill-rule="evenodd"/>
<path d="m14.839 174.47c9.0503 2.7544 17.314-1.9675 17.314-1.9675" fill="none" stroke="#eaeae7" stroke-linecap="round" stroke-width="1.2"/>
<path d="m17.593 158.34c12.985 2.361 18.888-3.5414 21.249-5.9024" fill="none" stroke="#eaeae7" stroke-linecap="round" stroke-width="1.2"/>
<path d="m34.514 145.36c0 4.7219 3.1479 9.8373 14.166 6.2959" fill="none" stroke="#eaeae7" stroke-linecap="round" stroke-width="1.2"/>
<path d="m37.008 162.48c0-3.571 0.56554-7.0685 3.6998-9.8385" fill="none" stroke="#eaeae7" stroke-linecap="round" stroke-width="1.2"/>
<path d="m24.676 188.25c0.78698 15.346 1.9675 20.068 7.4763 19.675 5.5089-0.39349 9.0503-9.0503 9.4438-28.725 0.071251-3.5625-5.9024-7.4632-5.9024-7.4632-3.9382 3.1545 9.0054 5.7889 0.41846 14.355-3.4598 3.4516-11.436 2.158-11.436 2.158z" fill="#72caba" fill-rule="evenodd"/>
<path d="m25.857 102.86c9.8373 3.1479 17.707-1.574 17.707-1.574" fill="none" stroke="#000" stroke-linecap="round" stroke-width="2.5"/>
<path d="m29.109 120.72c0.088123 4.0737-0.21817 6.9133 2.1264 6.7829 1.739-0.09677 1.771-1.6258 1.7716-6.6333 5.14e-4 -4.3424 0.12697-8.3132-1.7281-8.2904-2.6342 0.03149-2.2273 5.4863-2.1698 8.1409z" fill="#fefefe" fill-rule="evenodd"/>
<path d="m29.101 134.49c0 1.2394 0.97849 1.7613 2.0874 1.696 1.109-0.06523 1.6539-0.79262 1.5656-1.8265-0.083991-0.98357-0.58709-1.8265-1.5656-1.8265s-2.2179 0.45662-2.0874 1.957z" fill="#fefefe" fill-rule="evenodd"/>
<path d="m92.507 192.6c6.3229 5.4688 14.343 6.5526 14.343 6.5526" fill="none" stroke="#000" stroke-linecap="round" stroke-width="2"/>
<path d="m190.25 254.42c1.8817 3.0354 7.8952 0 8.3596-3.0962 0.39106-2.6071-1.0775-5.6028-3.8702-5.8827-3.1417-0.31487-6.3466 5.983-4.4894 8.9788z" fill="#050504" fill-rule="evenodd"/>
<path d="m192.88 299.47c-1.5422-0.12353-4.4894 2.6317-4.4894 6.0375 0 2.4962 0.92886 5.4183 2.4769 5.7279 1.5481 0.30962 4.3154-2.5166 4.9538-6.3471 0.6384-3.8305-0.89474-5.2544-2.9414-5.4183z" fill="#050504" fill-rule="evenodd"/>
<path d="m99.846 180.27s-2.4334 6.097-0.16718 6.7042c2.6497 0.70999 8.5268 1.0362 11.159 2.7391s5.7279 6.6567 9.5981 6.6567c3.8702 0 9.9077-4.025 13.004-4.025s8.05 2.9414 10.682 2.7865c2.6317-0.1548 15.326-11.301 18.732-11.765s7.1212 3.0962 11.301 2.4769c4.1798-0.61924 17.648-16.564 18.113-20.125 0.46443-3.5606 0.46443-21.363-0.46442-23.531-0.92885-2.1673-8.05-9.2885-10.063-8.9789s-10.991 11.146-11.611 13.778c-0.61923 2.6317-2.0125 8.824-3.251 9.4433-1.2385 0.61923-10.991 10.372-13.004 10.217s-6.6567-1.0837-8.5144-0.15481c-1.8577 0.92885-6.8115 7.8952-9.5981 8.05-2.7865 0.1548-11.146 1.7029-12.849 0.77403-1.7029-0.92884-17.101-6.2398-20.042-6.5494-2.9413-0.30962-3.0239 11.503-3.0239 11.503z" fill="#fefefe" fill-rule="evenodd" stroke="#000" stroke-width="2.7"/>
<path d="m171.21 145.13s9.4433 9.4433 11.611 12.385c2.1673 2.9413 6.8115 11.765 6.8115 11.765" fill="none" stroke="#000" stroke-width="2.5"/>
<path d="m165.02 158.13s7.276 11.456 7.7404 13.159c0.46442 1.7029 4.799 12.539 4.799 12.539" fill="none" stroke="#000" stroke-width="2.5"/>
<path d="m153.87 166.33 5.4183 19.351" fill="none" stroke="#000" stroke-width="2.5"/>
<path d="m139.63 171.75 2.6317 22.912" fill="none" stroke="#000" stroke-width="2.5"/>
<path d="m127.25 176.09-2.0125 18.887" fill="none" stroke="#000" stroke-width="2.5"/>
<path d="m117.03 172.53-6.5019 16.719" fill="none" stroke="#000" stroke-width="2.5"/>
<path d="m109.73 98.412c5.9373-3.7108-21.918-3.1312-32.877 6.2623-5.6035 4.803 9.3935-33.399 21.396-37.574 12.003-4.1749-24.527 7.306-26.615 9.9154-2.0874 2.6093 18.265-29.224 32.355-31.312 14.024-2.0776-29.224-2.0874-29.224-2.0874s18.265-19.309 37.574-21.396c19.309-2.0874-27.137-4.1749-27.137-4.1749 6.2623-6.2623 39.661-17.743 60.014 1.0437 0 0 17.829-15.187 30.268-13.047 0 0-12.525 9.9154-13.568 15.656 0 0 28.18-12.525 38.618-2.6093 0 0-6.7842 1e-5 -11.481 7.3061 27.71-5.0183 50.62 7.8279 57.405 20.874l-18.787-0.52186c7.306 3.653 25.049 18.265 20.353 31.312l-17.448-7.8476s11.611 20.389 9.0981 29.766c-0.65914 2.46-14.612-9.3935-14.612-9.3935s4.5188 15.533 1.0437 14.612c-1.5656-2.6093-9.3935-7.306-9.3935-7.306s2.3508 11.155-0.78033 11.677c-3.1312 0.52185-5.2571 0.16278-2.6478 3.2939 0.50666 0.60801-7.7197 7.5872-14.403 7.3222-3.3972-0.13472 4.1678-27.279-0.23248-27.789-12.79-1.4813-42.262 16.588-54.278 18.67-24.555 4.2547-39.903-9.3632-34.641-12.652z" fill="#d6d6d6" fill-rule="evenodd"/>
<path d="m150.47 112.33c6.2714-4.4796 19.71-13.439 27.326-14.335s13.778 7.8799 11.199 20.606c-1.6407 8.0954-21.502 22.398-34.493 15.679s-9.6126-18.86-4.0316-21.95z" fill="#fefefe" fill-rule="evenodd" stroke="#000" stroke-width="2.6"/>
<path d="m101.21 96.471c-7.3439 0.99472-19.219 3.797-24.359 8.2027-5.6035 4.803 9.3935-33.399 21.396-37.574-4.6295-0.57122-22.486 8.5312-28.657 14.408 0.030405-7.0887 18.288-34.524 38.031-36.208 14.126-1.2046-32.858-1.6837-32.858-1.6837 0-6.5343 18.265-19.309 37.574-21.396 19.309-2.0874-27.137-4.1749-27.137-4.1749 6.2623-6.2623 39.661-17.743 60.014 1.0437 0 0 17.829-15.187 30.268-13.047 0 0-12.525 9.9154-13.568 15.656 0 0 22.329-11.616 42.976-3.3345 0 0-11.143 0.72518-15.84 8.0312 26.076-6.2434 51.437 7.4195 59.855 24.142 0 0-23.66-3.3852-23.66-3.3852 7.7098 2.4418 27.472 17.861 22.775 30.908 0 0-19.42-8.7056-19.42-8.7056s15.61 20.486 11.887 34.708c-6.3766-8.975-15.429-13.977-15.429-13.977s4.5188 16.033 1.0437 15.112c-1.5656-2.6093-8.8935-7.806-8.8935-7.806s0.66221 8.8952-2.469 9.4171c0 0-0.622 4.7866-1.4345 9.5786" fill="none" stroke="#020202" stroke-linejoin="round" stroke-width="6"/>
<path d="m188.54 130.25c7.6153 0.44796 12.095 16.575 12.095 21.054s-1.607 13.361-1.607 13.361" fill="none" stroke="#000" stroke-linecap="round" stroke-width="2.8"/>
<path d="m202.43 141.9s4.9509 3.3972 8.0633-5.2975-2.6878-11.725-5.8235-10.381-7.1674 2.2398-4.4796 7.1674 2.6878 10.303 2.2398 8.5112z" fill="#e2b28a" fill-rule="evenodd"/>
<path d="m200.19 145.03c2.2398-6.2714 1.7918-10.303-0.44796-12.095s2.6878-7.6153 6.2714-7.1674 5.3755 4.4796 5.3755 4.4796" fill="none" stroke="#000" stroke-linecap="round" stroke-width="2.5"/>
<path d="m102.98 130.38c17.022 9.4072 26.598 6.2768 35.389-5.9491 7.2493-10.082-2.3286-14.962-2.3286-14.962l-0.1894-0.1259c-19.796-17.055-25.888-14.314-33.806-0.91368-7.9186 13.401 0.9355 21.95 0.9355 21.95z" fill="#fefefe" fill-rule="evenodd" stroke="#000" stroke-width="2.6"/>
<path d="m169.66 8.8065c-9.1878 1.9537-17.182 7.5678-24.303 13.433-13.754-13.828-36.394-13.071-53.022-5.3114 8.7235 0.94266 17.999 0.15847 26.341 2.9645 3.1726 3.9509-3.7542 4.9041-6.3614 4.8791-12.114 1.8505-23.747 7.9029-32.633 15.79 9.1928 0.54516 19.913 0.58494 28.835 2.8931 3.109 3.9814-3.2272 4.3144-5.8364 5.0335-10.146 4.6423-18.125 15.117-24.056 23.315 8.1378-3.1341 16.4-5.7664 24.704-8.3995 1.9757 5.818-5.0477 4.655-7.5348 8.1215-7.7419 7.8891-12.849 18.642-16.49 29.151 9.4917-5.1378 21.071-7.9511 31.838-6.1143 2.8232 0.76235 5.6442-1.2527 3.6853-0.1577 4.3347 7.0881 14.077 8.6476 21.74 9.3568 17.221 1.2646 27.909-4.4164 43.469-9.6622 6.2825-1.92 13.359-5.6078 19.949-3.3968 3.647 5.1445 0.36205 12.304 0.30882 18.034 0.14789 2.5482-1.7821 7.1953-0.18528 8.7083 3.1153-0.69875 8.4879-11.661 9.5774-14.48-1.3026-4.5386 4.2907 3.4599 6.5727 2.7372 0.05071-4.8881-2.3081-8.0288-3.6744-12.746 3.8767 2.0826 8.4007 6.5784 11.304 8.2595-0.68563-5.4308-1.7755-11.313-3.2437-16.628 5.3284 4.4221 11.015 8.6387 16.937 12.245-0.33656-11.471-7.1623-21.193-12.552-30.989 6.8605 3.0428 13.888 6.4006 20.659 9.2023 0.46397-11.434-9.6333-19.802-18.374-25.631-6.2136-2.921-9.5156-5.429-0.37056-4.4468 3.8471-0.60898 13.478 1.7502 14.205-0.4632-13.565-15.848-36.704-19.501-56.449-14.977 2.1697-4.4152 6.111-8.8693 10.16-10.746-12.248-3.028-24.479 2.2236-35.729 6.6393 0.391-7.1082 6.5854-12.546 10.53-16.614z" fill="#d6d6d6" fill-rule="evenodd"/>
<path d="m105.45 91.95s-7.2479 1.505-4.5602-0.73476c2.6878-2.2398 5.6801-3.0729 7.9199-3.0729s-4.4766-4.4616-7.1674-4.0316c-2.733 0.43666 8.6329-2.5454 13.439-1.5679 2.6702 0.5431-2.2398-4.2556-5.3755-5.1515 8.3562 1.5236 19.262 3.5837 23.742 13.887s5.8235 4.0316 5.8235 4.0316-4.5257 11.92-0.41243 15.822c2.7785 2.6359-14.631-13.005-31.733-14.82-1.1871-0.126-2.7659-1.2864-3.7921-1.2501-4.452 0.15774 3.0691-3.0387 2.1164-3.112z" fill="#d6d6d6" fill-rule="evenodd" stroke="#000" stroke-linecap="round" stroke-linejoin="round" stroke-width="2.3"/>
<path d="m139.21 111.71c10.306 3.1436 11.185-3.2519 21.968-18.492 14.568-20.589 36.768-15.374 36.768-15.374l-8.9592 3.5837s15.455-0.89592 17.694 4.7036c-2.4638 1.5679-12.543 1.3439-9.4072 2.2398s9.1832 5.1515 7.3913 7.3913c-2.2398 0-6.7194-1.3439-6.7194-1.3439l2.2398 6.2714s-23.634-9.2282-53.647 12.274" fill="#d6d6d6" fill-rule="evenodd" stroke="#000" stroke-linecap="round" stroke-linejoin="round" stroke-width="2.3"/>
<path d="m153.72 137.65s8.3327 5.0615 13.365 1.5774" fill="#ebc09f" fill-rule="evenodd" stroke="#e2b28a" stroke-linecap="round" stroke-width="2"/>
<path d="m147.28 111.99s-23.601 21.116-28.884 29.837c-3.2426 5.3536-6.4504 17.539-5.5544 20.226s27.326-15.231 35.389-15.679 3.7436-16.518-0.25337-15.991c-6.0155 0.79355-13.633 4.7918-15.425 11.063" fill="#f2d6c6" fill-rule="evenodd" stroke="#000" stroke-linecap="round" stroke-width="3"/>
<path d="m173.28 120.26s-8.4564-4.8992-2.1292-11.226c7.0656-7.0656 11.033 2.3227 8.1295 5.6132-1.63 1.8473-6.0003 1.5485-6.0003-0.58068s3.097-5.2261 3.6776-0.77423" fill="none" stroke="#000" stroke-linecap="round" stroke-width="2.3"/>
<path d="m111.62 108.93s0.29467 1.5322 2.2119 1.0209c2.5522-0.68059 2.2119-3.7432 0.51044-3.7432-1.5313 0-2.3821 0.51044-2.7224 2.7224z" fill="none" stroke="#000" stroke-linecap="round" stroke-width="2.5"/>
<path d="m141.14 86.196c-1.1614-7.3552-9.2908-13.356-12.194-13.356" fill="none" stroke="#a8a8a8" stroke-linecap="round" stroke-width="2"/>
<path d="m144.24 84.26c0.38712-6.581-6.9681-14.711-8.1295-14.904" fill="none" stroke="#a8a8a8" stroke-linecap="round" stroke-width="2"/>
<path d="m147.53 83.486c-1.9356-7.9359 4.2583-22.259 8.5166-25.163" fill="none" stroke="#a8a8a8" stroke-linecap="round" stroke-width="2"/>
<path d="m192.84 58.074s7.7266 6.273 8.1443 12.539c0 0 3.5491-12.748-6.4768-17.552" fill="#6a526e" fill-rule="evenodd" stroke="#000" stroke-linejoin="round" stroke-width="2.3"/>
<path d="m168.82 44.922c-2.4656 5.3095-2.0887 13.368 6.6839 16.71 9.3222 3.5513 16.919-0.62662 19.216-5.8484 2.6879-6.1089-1.0444-14.83-7.5194-17.128-5.0186-1.7808-14.59-1.8966-18.381 6.2662z" fill="#6a526e" fill-rule="evenodd" stroke="#000" stroke-width="2.3"/>
<path d="m151.02 83.099c0.19356-4.2583 7.9359-15.678 12.968-17.614" fill="none" stroke="#a8a8a8" stroke-linecap="round" stroke-width="2"/>
<path d="m154.11 83.292c3.8712-6.3875 14.13-11.42 20.324-10.259" fill="none" stroke="#a8a8a8" stroke-linecap="round" stroke-width="2"/>
<path d="m23.874 83.606c-0.25236 2.0123 0.67501 4.5251 3.3848 4.5251 3.3377 0 5.1947-2.2913 5.09-4.6612-0.076843-1.7403-1.8946-3.3637-4.2008-3.3637-2.4104 0-4.032 1.5702-4.274 3.4998z" fill="none" stroke="#76d2c1" stroke-width="2"/>
<path d="m40.494 78.26c-1.9414 1.0152-3.0969 2.7098-2.3227 4.2583 0.77424 1.5485 3.4841 2.5163 5.4197 0.77423 1.9356-1.742 0.25351-6.7846-3.0969-5.0325z" fill="none" stroke="#76d2c1" stroke-width="2"/>
<path d="m26.17 67.033c0 4.1459 4.0647 6.1939 6.9681 5.8068 2.9034-0.38712 5.8068-2.1249 5.8068-6.581 0-3.097-3.4841-6.7746-7.9359-6.3875-3.4763 0.30229-4.839 3.4998-4.839 7.1617z" fill="none" stroke="#76d2c1" stroke-width="2"/>
<path d="m44.171 60.259c0.08863 2.8947 1.5485 5.6132 4.839 6.0003 2.8899 0.34 7.1617-1.742 7.1617-5.8068 0-3.8712-3.8894-5.2642-6.1939-5.6132-3.9281-0.59492-5.8742 3.218-5.8068 5.4197z" fill="none" stroke="#76d2c1" stroke-width="2"/>
<path d="m36.623 48.451c2.4911-0.15711 5.2261-1.1614 5.4197-5.0325 0.19356-3.8712-4.839-5.4197-6.3875-4.6454-1.5485 0.77423-3.8712 3.2905-3.6776 5.8068 0.19356 2.5163 2.0741 4.0334 4.6454 3.8712z" fill="none" stroke="#76d2c1" stroke-width="2"/>
<path d="m40.107 28.128c1.5485 0.19356 5.6132-0.53262 5.6132-4.0647 0-2.3308-2.1217-5.0325-4.6454-5.0325-2.5163 0-4.839 2.7098-5.0325 5.2261s2.5163 4.2583 4.0647 3.8712z" fill="none" stroke="#76d2c1" stroke-width="2"/>
<path d="m122.03 45.548c0.20887 7.1017 3.339 12.323 11.906 12.741 9.1795 0.44763 19.843-2.0887 20.261-12.95 0.35358-9.1931-6.2662-15.248-15.665-14.621-9.3993 0.62662-16.501 7.3105-16.501 14.83z" fill="#6a526e" fill-rule="evenodd" stroke="#000" stroke-width="2.3"/>
<path d="m137.61 49.097c6.179-0.14769 8.8617-2.7437 8.8617-6.2032 0-3.2026-3.0994-4.8328-7.6801-4.8739-4.8856-0.04251-8.1232 2.2154-8.4186 6.0555-0.29539 3.8401 3.5215 5.1104 7.237 5.0216z" fill="#9696ce" fill-rule="evenodd" stroke="#000" stroke-width="2.3"/>
<path d="m154.61 46.802c1.4621-0.62661 9.817-1.2532 13.159 2.9242l2.2976-7.7283c-7.1085-4.5935-16.292-1.8799-16.292-1.8799l0.83549 6.6839z" fill="#6a526e" fill-rule="evenodd" stroke="#000" stroke-width="2.3"/>
<path d="m176.9 46.438c-2.1401 3.7546 2.2154 6.2032 5.1693 6.4986 2.4238 0.24238 6.0555 0.29539 6.9417-2.6585 0.98986-3.2995-3.2694-5.3629-5.7601-5.9078-3.285-0.7187-5.4424 0.47388-6.3509 2.0677z" fill="#9696ce" fill-rule="evenodd" stroke="#000" stroke-width="2.3"/>
<path d="m90.122 253.41c1.2902 0.64509 6.9405-10.249 5.6503-11.109 0 0-5.1958-2.0866-8.2063-4.882l-8.1936 9.4371s3.7117 4.2181 10.75 6.5544z" fill="#c6c2a3" fill-rule="evenodd"/>
<path d="m275.39 186.19c-1.8062 6.4398-4.408 9.7666-4.408 9.7666-0.43006 1.0752 10.393 2.7823 10.823 1.2771 0 0 2.3577-4.643 2.734-8.5456 0 0-8.0847-2.1432-9.1491-2.498z" fill="#c6c2a3" fill-rule="evenodd"/>
<path d="m154.54 217.85s-9.8452-10.89-22.892-1.4961-27.659 10.959-31.834 3.1312c-4.1749-7.8279 4.8204-19.073-1.0437-20.081-5.0935-0.87561-11.481-5.4903-8.3498-12.274 3.1312-6.7842 8.5738-4.7724 10.437-11.481 2.6093-9.3935-11.481-10.959-10.437-18.787 0.58929-4.4197 7.306-1.0437 9.9154-6.2623 2.6093-5.2186 6.0435-16.956 1.5656-20.874-4.1749-3.653-8.6967-23.484 3.8279-31.312 3.1526-1.9704 0.77752-2.3957-7.5367-1.2695m113.3 17.791c8.1857 2.4341 15.478 26.257-0.27866 30.706 0 0 2.8508 7.5678 2.8508 7.5678-3.7831 13.009-13.009 6.1509-13.009 6.1509-2.8903 4.3354-2.5376 26.798-18.929 39.412" fill="none" stroke="#020202" stroke-linejoin="round" stroke-width="6.5"/>
<path d="m197.05 115.02s0 4.9276-1.7918 7.6153 8.91-8.6117 17.124-5.475" fill="none" stroke="#000" stroke-linecap="round" stroke-width="2.5"/>
<path d="m90.122 253.41c1.2902 0.64509 6.9405-10.249 5.6503-11.109 0 0-5.1958-2.0866-8.2063-4.882l-8.1936 9.4371s3.7117 4.2181 10.75 6.5544z" fill="#c6c2a3" fill-rule="evenodd"/>
<path d="m211.49 319.83s12.396-53.056 8.3125-74.701" fill="none" stroke="#000" stroke-width="4"/>
<path d="m148.87 319.92c1.5887-38.129-4.2332-40.993-2.8868-66.39" fill="none" stroke="#000" stroke-width="6"/>
<path d="m180.19 197.67c-6.0457 4.9867-10.424 1.7776-1.5362 15.643" fill="none" stroke="#000" stroke-linecap="round" stroke-linejoin="round" stroke-width="2.5"/>
<path d="m163.96 218.52c-3.0369-4.0399-4.2888-8.0553-19.574-7.6998" fill="none" stroke="#000" stroke-linecap="round" stroke-linejoin="round" stroke-width="2.5"/>
<path d="m96 239s26 7 47-7" fill="none" stroke="#000" stroke-width="4"/>
<path d="m272 182s-12 27-30 35" fill="none" stroke="#000" stroke-width="4"/>
<path d="m97 153s10-20 5-25c-5-5-7-23 0-30" fill="none" stroke="#000" stroke-width="4"/>
<path d="m216.47 117.98 0.99136-12.32" fill="none" stroke="#000" stroke-width="8"/>
<path d="m70 82.796s13.447-8.6156 21.447-12.616" fill="none" stroke="#000" stroke-width="4"/>
<path d="m195.5 22s24-1.5 36.5 10.5" fill="none" stroke="#000" stroke-width="4"/>
</svg>
